<svg xmlns="http://www.w3.org/2000/svg" viewBox="0 0 64 64"><path d="M5 285.4c-1.2-.5-2.6-2-3-3.2-.5-1.2-.5-38 0-39.2a7 7 0 0 1 3-3.1 743 743 0 0 1 54 0c1.2.5 2.6 2 3 3.1q.4 1 .4 19.7v18.8l-2.7-2.7L57 276v-31.6H7v36.2h14.8l1.8 1.6c1 1 2.5 2 3.4 2.6l1.6 1H17.3a61 61 0 0 1-12.3-.5" style="fill:#18c3d4;stroke-width:.32013538;fill-opacity:1" transform="translate(0 -233)"/><path d="m51.2 285-5.7-5.6-1.4.8c-4 2.4-10 2.4-14.4 0-2-1.2-5-4.4-6.1-6.6a15 15 0 0 1 3-16.9 14.6 14.6 0 0 1 20.9.1c4.6 4.7 5.6 11 2.7 17l-.9 2 5.6 5.6 5.6 5.6-1.8 1.8-1.9 1.8zm-9.6-9.3a9.7 9.7 0 1 0-11.3-15.5 9.7 9.7 0 0 0 1.2 15c2 1.4 3.1 1.7 6 1.6 1.9-.1 2.7-.3 4-1" style="fill:#ffb703;fill-opacity:1;stroke-width:.32013538" transform="translate(0 -233)"/></svg>